<svg width="178" height="32" viewBox="0 0 178 32" fill="none" xmlns="http://www.w3.org/2000/svg">
<path d="M52.3224 24.2642C51.8538 24.3363 51.4321 24.3603 51.0338 24.3603C50.1434 24.3603 49.4874 24.1922 49.0657 23.8798C48.644 23.5675 48.3862 23.1111 48.2691 22.5345H48.2222C47.9411 23.2552 47.5662 23.7357 47.0742 23.9759C46.5821 24.2162 45.8793 24.3603 44.9655 24.3603C44.5438 24.3603 44.122 24.3123 43.7003 24.2162C43.2551 24.1201 42.8568 23.9759 42.5054 23.7837C42.1305 23.5916 41.8494 23.3273 41.6151 22.9669C41.3808 22.6306 41.287 22.1982 41.287 21.6937C41.287 21.1892 41.3808 20.7567 41.5916 20.3964C41.8025 20.06 42.0602 19.7477 42.3648 19.5075C42.6928 19.2672 43.0443 19.075 43.466 18.9309C43.8643 18.7868 44.286 18.6426 44.7312 18.4985C45.4341 18.2823 46.0198 18.1141 46.465 17.9459C46.9102 17.8018 47.2382 17.6336 47.4959 17.4654C47.7302 17.2973 47.9176 17.1051 48.0114 16.8889C48.1051 16.6727 48.1519 16.4084 48.1519 16.0721V14.4384C48.1519 13.9579 48.0348 13.5255 47.8239 13.1411C47.5896 12.7568 47.1679 12.5646 46.5587 12.5646C46.1604 12.5646 45.809 12.6607 45.5278 12.8528C45.2232 13.045 45.0826 13.3814 45.0826 13.8859C45.0826 13.9339 45.0826 14.03 45.1061 14.1742C45.1295 14.3183 45.1295 14.4624 45.1529 14.6066C45.1764 14.7748 45.1764 14.9189 45.1998 15.0631C45.2232 15.2072 45.2232 15.3033 45.2232 15.3513C45.2232 15.6156 45.1529 15.8318 45.0358 15.976C44.9186 16.1201 44.7781 16.2402 44.6141 16.3123C44.45 16.3844 44.286 16.4324 44.0986 16.4324C43.9112 16.4324 43.7706 16.4564 43.6534 16.4564C43.4894 16.4564 43.302 16.4324 43.1146 16.4084C42.9271 16.3844 42.7631 16.3123 42.6225 16.2162C42.482 16.1201 42.3648 15.976 42.2711 15.8078C42.1774 15.6396 42.1305 15.3994 42.1305 15.0871C42.1305 14.6306 42.2477 14.2222 42.5054 13.8378C42.7631 13.4775 43.0911 13.1652 43.5129 12.9249C43.9346 12.6847 44.4032 12.4925 44.9186 12.3724C45.4575 12.2522 45.9964 12.1802 46.5587 12.1802C47.2147 12.1802 47.8473 12.2282 48.4097 12.3483C48.9954 12.4444 49.4874 12.6606 49.9092 12.9249C50.3309 13.2132 50.6823 13.5976 50.9166 14.0781C51.1744 14.5585 51.2915 15.1832 51.2915 15.9279V22.5826C51.2915 22.9189 51.3384 23.2072 51.4321 23.4714C51.5258 23.7357 51.7601 23.8558 52.1584 23.8558C52.3927 23.8558 52.5801 23.8078 52.7207 23.7117C52.8613 23.6156 53.0019 23.4955 53.1424 23.3273L53.3767 23.5675C53.119 23.9519 52.7676 24.1922 52.3224 24.2642ZM48.0582 17.3934C48.0348 17.4895 47.9645 17.6096 47.8708 17.7057C47.7771 17.8018 47.613 17.9219 47.3553 18.042C47.0273 18.2102 46.6993 18.3543 46.3713 18.4985C46.0433 18.6426 45.7387 18.8348 45.481 19.075C45.2232 19.3153 45.0124 19.5796 44.8484 19.9399C44.6843 20.2762 44.5906 20.7087 44.5906 21.2372C44.5906 21.4534 44.6141 21.6937 44.6375 21.982C44.6609 22.2702 44.7312 22.5345 44.8484 22.7988C44.9655 23.063 45.1295 23.3033 45.3638 23.4714C45.5981 23.6636 45.9027 23.7597 46.301 23.7597C46.5353 23.7597 46.7462 23.7117 46.957 23.5916C47.1679 23.4955 47.3788 23.3273 47.5428 23.0871C47.7068 22.8708 47.8473 22.5825 47.9645 22.1982C48.0582 21.8378 48.1285 21.4054 48.1285 20.8768V17.3453H48.0582V17.3934Z" fill="#A4CA61"/>
<path d="M54.9234 20.1561C55.1342 20.6606 55.3451 21.1411 55.556 21.5976C55.7668 22.054 56.0246 22.4624 56.3292 22.8228C56.6337 23.1831 56.9852 23.4714 57.4069 23.6877C57.8286 23.9039 58.3441 24.024 58.9298 24.024C59.0938 24.024 59.3047 24.024 59.5624 24C59.8202 23.9759 60.0779 23.9039 60.3356 23.7837C60.5933 23.6396 60.8042 23.4474 60.9916 23.1591C61.1791 22.8949 61.2728 22.4865 61.2728 21.982C61.2728 21.8138 61.2494 21.6696 61.2025 21.4774C61.1557 21.3093 61.0619 21.1411 60.9214 20.9489C60.7808 20.7808 60.5699 20.5886 60.3122 20.4204C60.0545 20.2522 59.6796 20.0841 59.211 19.8919L57.1023 19.0991C56.868 19.003 56.6103 18.8829 56.3292 18.7387C56.048 18.5946 55.7903 18.3784 55.556 18.1381C55.3217 17.8979 55.1342 17.5856 54.9702 17.2492C54.8062 16.9129 54.7359 16.4805 54.7359 16C54.7359 15.4955 54.8297 14.991 55.0405 14.5345C55.2514 14.0781 55.5325 13.6697 55.9074 13.3093C56.2823 12.973 56.7275 12.6847 57.2663 12.4925C57.8052 12.3003 58.3675 12.1802 59.0001 12.1802C59.3281 12.1802 59.6327 12.2042 59.9139 12.2763C60.195 12.3483 60.4528 12.4204 60.6871 12.4925C60.9214 12.5646 61.1322 12.6366 61.3197 12.7087C61.5071 12.7808 61.6477 12.8048 61.7414 12.8048C61.9288 12.8048 62.046 12.7808 62.1163 12.7087C62.1631 12.6366 62.21 12.5646 62.2568 12.4685H62.6317V15.7117H62.3037C62.1397 15.2793 61.9523 14.8709 61.7648 14.4865C61.5774 14.1021 61.3665 13.7417 61.1088 13.4534C60.8511 13.1652 60.5465 12.9249 60.195 12.7567C59.8202 12.5886 59.375 12.4925 58.8361 12.4925C58.2738 12.4925 57.7349 12.6366 57.2663 12.9489C56.7977 13.2612 56.54 13.7177 56.54 14.3183C56.54 14.4384 56.5634 14.5826 56.5869 14.7507C56.6103 14.9189 56.704 15.0871 56.8212 15.2552C56.9383 15.4234 57.1258 15.5916 57.3835 15.7597C57.6412 15.9279 57.9927 16.0961 58.4144 16.2643L60.6168 17.033C61.554 17.3693 62.2568 17.8258 62.7489 18.3784C63.2409 18.9309 63.4752 19.6276 63.4752 20.4925C63.4752 21.069 63.358 21.5976 63.1003 22.078C62.8426 22.5585 62.5146 22.9429 62.1163 23.2792C61.718 23.6156 61.2259 23.8558 60.7105 24.048C60.1716 24.2162 59.6093 24.3123 59.047 24.3123C58.7424 24.3123 58.391 24.2882 58.0395 24.2162C57.6646 24.1441 57.3132 24.072 56.9852 23.9519C56.6572 23.8558 56.3292 23.7597 56.0714 23.6877C55.7903 23.6156 55.5794 23.5916 55.4154 23.5916C55.2748 23.5916 55.1811 23.6156 55.1108 23.6636C55.0405 23.7117 54.9937 23.8078 54.9468 23.9519H54.5719V20.0841H54.9234V20.1561Z" fill="#A4CA61"/>
<path d="M76.3595 24.2642C75.891 24.3363 75.4692 24.3603 75.0709 24.3603C74.1806 24.3603 73.5246 24.1922 73.1028 23.8798C72.6811 23.5675 72.4234 23.1111 72.3062 22.5345H72.2594C71.9782 23.2552 71.6033 23.7357 71.1113 23.9759C70.6193 24.2162 69.9164 24.3603 69.0026 24.3603C68.5809 24.3603 68.1592 24.3123 67.7374 24.2162C67.2923 24.1201 66.894 23.9759 66.5425 23.7837C66.1677 23.5916 65.8865 23.3273 65.6522 22.9669C65.4179 22.6306 65.3242 22.1982 65.3242 21.6937C65.3242 21.1892 65.4179 20.7567 65.6288 20.3964C65.8396 20.06 66.0974 19.7477 66.402 19.5075C66.73 19.2672 67.0814 19.075 67.5031 18.9309C67.9015 18.7868 68.3232 18.6426 68.7683 18.4985C69.4712 18.2823 70.057 18.1141 70.5021 17.9459C70.9473 17.8018 71.2753 17.6336 71.533 17.4654C71.7673 17.2973 71.9548 17.1051 72.0485 16.8889C72.1422 16.6727 72.1891 16.4084 72.1891 16.0721V14.4384C72.1891 13.9579 72.0719 13.5255 71.8611 13.1411C71.6268 12.7568 71.205 12.5646 70.5959 12.5646C70.1976 12.5646 69.8461 12.6607 69.565 12.8528C69.2604 13.045 69.1198 13.3814 69.1198 13.8859C69.1198 13.9339 69.1198 14.03 69.1432 14.1742C69.1667 14.3183 69.1666 14.4624 69.1901 14.6066C69.2135 14.7748 69.2135 14.9189 69.2369 15.0631C69.2604 15.2072 69.2604 15.3033 69.2604 15.3513C69.2604 15.6156 69.1901 15.8318 69.0729 15.976C68.9558 16.1201 68.8152 16.2402 68.6512 16.3123C68.4872 16.3844 68.3232 16.4324 68.1357 16.4324C67.9483 16.4324 67.8077 16.4564 67.6906 16.4564C67.5266 16.4564 67.3391 16.4324 67.1517 16.4084C66.9643 16.3844 66.8003 16.3123 66.6597 16.2162C66.5191 16.1201 66.402 15.976 66.3082 15.8078C66.2145 15.6396 66.1677 15.3994 66.1677 15.0871C66.1677 14.6306 66.2848 14.2222 66.5425 13.8378C66.8003 13.4775 67.1283 13.1652 67.55 12.9249C67.9717 12.6847 68.4403 12.4925 68.9558 12.3724C69.4947 12.2522 70.0335 12.1802 70.5959 12.1802C71.2519 12.1802 71.8845 12.2282 72.4468 12.3483C73.0325 12.4444 73.5246 12.6606 73.9463 12.9249C74.368 13.2132 74.7195 13.5976 74.9538 14.0781C75.2115 14.5585 75.3286 15.1832 75.3286 15.9279V22.5826C75.3286 22.9189 75.3755 23.2072 75.4692 23.4714C75.5629 23.7357 75.7972 23.8558 76.1955 23.8558C76.4298 23.8558 76.6173 23.8078 76.7579 23.7117C76.8984 23.6156 77.039 23.4955 77.1796 23.3273L77.4139 23.5675C77.1796 23.9519 76.8281 24.1922 76.3595 24.2642ZM72.1188 17.3934C72.0954 17.4895 72.0251 17.6096 71.9313 17.7057C71.8376 17.8018 71.6736 17.9219 71.4159 18.042C71.0879 18.2102 70.7599 18.3543 70.4319 18.4985C70.1038 18.6426 69.7992 18.8348 69.5415 19.0751C69.2838 19.3153 69.0729 19.5796 68.9089 19.9399C68.7449 20.2762 68.6512 20.7087 68.6512 21.2372C68.6512 21.4534 68.6746 21.6937 68.6981 21.982C68.7215 22.2702 68.7918 22.5345 68.9089 22.7988C69.0261 23.063 69.1901 23.3033 69.4244 23.4714C69.6587 23.6636 69.9633 23.7597 70.3616 23.7597C70.5959 23.7597 70.8067 23.7117 71.0176 23.5916C71.2285 23.4955 71.4393 23.3273 71.6033 23.0871C71.7673 22.8708 71.9079 22.5825 72.0251 22.1982C72.1188 21.8378 72.1891 21.4054 72.1891 20.8768V17.3453H72.1188V17.3934Z" fill="#A4CA61"/>
<path d="M83.4144 12.5885V14.4864H83.4613C83.555 14.3182 83.6956 14.102 83.883 13.8618C84.047 13.6215 84.2813 13.3813 84.5625 13.1651C84.8436 12.9488 85.1951 12.7567 85.5934 12.5885C85.9917 12.4203 86.4837 12.3482 87.0694 12.3482C87.6786 12.3482 88.1941 12.4203 88.5924 12.5404C88.9907 12.6846 89.3421 12.8527 89.5998 13.0449C89.8576 13.2612 90.0919 13.4774 90.2559 13.7176C90.4199 13.9579 90.5605 14.2221 90.701 14.4624C90.9588 13.9819 91.2399 13.5975 91.5679 13.3332C91.8959 13.069 92.224 12.8527 92.552 12.6846C92.88 12.5404 93.1846 12.4443 93.4892 12.3963C93.7937 12.3482 94.028 12.3242 94.2155 12.3242C95.1995 12.3242 95.9727 12.4684 96.5116 12.7807C97.0505 13.093 97.4488 13.4534 97.6831 13.8618C97.9174 14.2702 98.0579 14.7266 98.1048 15.1831C98.1516 15.6395 98.1751 16.0479 98.1751 16.3602V23.6395H99.8854V24.0239H93.4657V23.6395H94.9887V15.3753C94.9887 14.6305 94.8481 14.0539 94.5903 13.6455C94.3326 13.2371 93.864 13.0449 93.2549 13.0449C93.0674 13.0449 92.8331 13.093 92.552 13.2131C92.2708 13.3092 92.0131 13.4774 91.7554 13.6936C91.4976 13.9098 91.2633 14.1981 91.0993 14.5344C90.9119 14.8708 90.8182 15.3032 90.8182 15.7837V23.6395H92.3411V24.0239H86.0854V23.6395H87.6552V15.1591C87.6552 14.3663 87.4912 13.8377 87.1632 13.5254C86.8351 13.2131 86.4603 13.069 86.062 13.069C85.3591 13.069 84.7499 13.3813 84.2345 14.0059C84.0939 14.1741 83.9767 14.3663 83.8596 14.5585C83.7659 14.7506 83.6721 14.9669 83.6019 15.2071C83.5316 15.4473 83.5081 15.7116 83.4613 16.0239C83.4378 16.3362 83.4144 16.7206 83.4144 17.153V23.6635H84.9373V24.0479H78.5176V23.6635H80.228V12.9729H78.5176V12.5885H83.4144Z" fill="#A4CA61"/>
<path d="M101.08 23.6397H103.141V4.54063H101.08V4.15625H105.461V14.4145H105.508C105.766 13.6938 106.187 13.0932 106.797 12.5887C107.406 12.0842 108.202 11.8439 109.186 11.8439C109.96 11.8439 110.686 12.0121 111.365 12.3484C112.045 12.6848 112.654 13.1412 113.169 13.6938C113.685 14.2463 114.107 14.919 114.411 15.6637C114.716 16.4085 114.856 17.2013 114.856 18.0421C114.856 18.8829 114.692 19.6998 114.388 20.4445C114.083 21.2133 113.638 21.8859 113.123 22.4625C112.584 23.0391 111.951 23.5196 111.248 23.8559C110.545 24.2163 109.796 24.3844 108.999 24.3844C108.39 24.3844 107.874 24.2883 107.453 24.0721C107.031 23.8559 106.679 23.6157 106.398 23.3034C106.117 23.0151 105.906 22.7028 105.766 22.3904C105.625 22.0781 105.508 21.8139 105.438 21.5976H105.391V24H101.08V23.6397ZM112.185 17.7058C112.185 16.8649 112.138 16.0962 112.045 15.4235C111.951 14.7508 111.787 14.1742 111.576 13.6938C111.342 13.2133 111.037 12.8529 110.639 12.5887C110.241 12.3244 109.725 12.2043 109.093 12.2043C108.437 12.2043 107.874 12.3244 107.453 12.5646C107.031 12.8049 106.679 13.1172 106.398 13.4776C106.211 13.7418 106.047 14.0061 105.93 14.2944C105.812 14.5827 105.719 14.943 105.648 15.3514C105.578 15.7598 105.531 16.2163 105.508 16.7448C105.484 17.2733 105.461 17.898 105.461 18.5947C105.461 19.1953 105.508 19.8199 105.602 20.4685C105.695 21.1172 105.859 21.6937 106.117 22.2223C106.375 22.7508 106.726 23.1832 107.171 23.4955C107.617 23.8319 108.226 24 108.975 24C109.702 24 110.288 23.8559 110.733 23.5676C111.154 23.2793 111.482 22.8469 111.693 22.2943C111.904 21.7418 112.045 21.0691 112.092 20.3004C112.162 19.5316 112.185 18.6667 112.185 17.7058Z" fill="white"/>
<path d="M119.379 17.1771C119.379 17.3693 119.379 17.5374 119.356 17.7536C119.356 17.9458 119.332 18.1861 119.332 18.4744C119.332 19.075 119.379 19.7236 119.449 20.3723C119.52 21.0449 119.684 21.6215 119.918 22.1741C120.152 22.7026 120.527 23.159 120.996 23.4954C121.464 23.8557 122.097 24.0239 122.894 24.0239C123.69 24.0239 124.323 23.9038 124.838 23.6635C125.354 23.4233 125.752 23.135 126.057 22.7987C126.361 22.4623 126.572 22.126 126.713 21.7657C126.853 21.4053 126.97 21.141 127.041 20.9008L127.439 20.9729C127.392 21.165 127.275 21.4533 127.134 21.8377C126.97 22.2221 126.736 22.5825 126.408 22.9669C126.08 23.3512 125.635 23.6635 125.073 23.9518C124.51 24.2401 123.784 24.3843 122.894 24.3843C122.003 24.3843 121.16 24.2401 120.41 23.9518C119.637 23.6635 118.981 23.2311 118.442 22.6786C117.88 22.126 117.458 21.4774 117.153 20.7086C116.849 19.9398 116.708 19.099 116.708 18.1621C116.708 17.3452 116.872 16.5765 117.177 15.8077C117.481 15.0389 117.927 14.3663 118.465 13.7897C119.004 13.2131 119.66 12.7326 120.387 12.3723C121.113 12.0119 121.91 11.8438 122.753 11.8438C123.245 11.8438 123.784 11.9398 124.37 12.108C124.932 12.3002 125.471 12.5885 125.963 12.9969C126.455 13.4053 126.877 13.9579 127.205 14.6305C127.533 15.3032 127.697 16.144 127.697 17.1771H119.379ZM124.932 16.7927C124.979 16.5284 124.979 16.2882 124.979 16.072C124.979 15.8558 124.979 15.6155 124.979 15.3753C124.979 14.7507 124.932 14.2462 124.815 13.8377C124.698 13.4293 124.534 13.117 124.323 12.8768C124.112 12.6365 123.878 12.4684 123.573 12.3723C123.269 12.2762 122.964 12.2281 122.612 12.2281C122.003 12.2281 121.511 12.3483 121.113 12.5885C120.715 12.8287 120.41 13.1651 120.176 13.5975C119.942 14.0299 119.777 14.5104 119.66 15.063C119.543 15.6155 119.473 16.1921 119.426 16.7927H124.932Z" fill="white"/>
<path d="M141.471 23.712C141.237 23.9042 140.956 24.0483 140.628 24.1925C140.3 24.3366 139.902 24.4087 139.456 24.4087C138.59 24.4087 137.98 24.2165 137.582 23.8321C137.207 23.4477 136.926 22.9192 136.785 22.2465H136.739C136.668 22.4147 136.575 22.6069 136.434 22.8711C136.317 23.1114 136.106 23.3516 135.848 23.5919C135.591 23.8321 135.239 24.0243 134.817 24.1684C134.396 24.3126 133.833 24.4087 133.177 24.4087C132.428 24.4087 131.818 24.3126 131.373 24.1444C130.928 23.9762 130.577 23.76 130.319 23.4958C130.061 23.2315 129.897 22.9432 129.827 22.6309C129.757 22.3186 129.71 22.0063 129.71 21.742C129.71 21.0934 129.827 20.5889 130.085 20.2045C130.342 19.8201 130.67 19.5078 131.069 19.2916C131.467 19.0513 131.912 18.8832 132.404 18.715C132.896 18.5709 133.388 18.4027 133.904 18.2585C134.489 18.0663 134.981 17.8742 135.38 17.73C135.755 17.5859 136.059 17.3937 136.27 17.2015C136.481 16.9853 136.621 16.721 136.715 16.4087C136.785 16.0964 136.832 15.6399 136.832 15.1114C136.832 14.679 136.809 14.2706 136.762 13.9342C136.715 13.5739 136.598 13.2856 136.457 13.0453C136.317 12.8051 136.106 12.6129 135.848 12.4688C135.591 12.3486 135.216 12.2766 134.77 12.2766C134.185 12.2766 133.693 12.3727 133.294 12.5889C132.92 12.8051 132.709 13.1414 132.709 13.6219C132.709 13.9342 132.732 14.2465 132.779 14.5348C132.826 14.8471 132.849 15.0634 132.849 15.2075C132.849 15.4718 132.756 15.688 132.592 15.8561C132.404 16.0243 132.146 16.1204 131.818 16.1204C131.233 16.1204 130.858 16.0003 130.717 15.7841C130.577 15.5679 130.506 15.2796 130.506 14.9192C130.506 14.5108 130.6 14.1264 130.764 13.7661C130.951 13.4057 131.209 13.0694 131.561 12.7811C131.912 12.4928 132.357 12.2766 132.873 12.1084C133.412 11.9402 133.997 11.8682 134.677 11.8682C135.497 11.8682 136.2 11.9643 136.739 12.1805C137.301 12.3967 137.746 12.685 138.074 13.0453C138.426 13.4057 138.66 13.8141 138.8 14.2465C138.941 14.703 139.011 15.1595 139.011 15.664V22.5348C139.011 23.0633 139.082 23.4237 139.246 23.6159C139.41 23.8081 139.644 23.8801 139.948 23.8801C140.136 23.8801 140.347 23.8321 140.558 23.76C140.768 23.688 140.979 23.5678 141.167 23.4237L141.471 23.712ZM136.785 17.2736H136.739C136.692 17.5138 136.411 17.754 135.848 17.9943L133.833 18.8111C133.271 19.0513 132.826 19.3877 132.521 19.8201C132.217 20.2525 132.076 20.7811 132.076 21.4297C132.076 21.694 132.099 21.9823 132.146 22.2946C132.193 22.5829 132.287 22.8471 132.451 23.0874C132.592 23.3276 132.802 23.4958 133.06 23.6639C133.318 23.8081 133.646 23.8801 134.068 23.8801C134.653 23.8801 135.145 23.76 135.497 23.4958C135.872 23.2315 136.153 22.9192 136.34 22.5348C136.528 22.1504 136.645 21.742 136.715 21.2856C136.785 20.8291 136.809 20.4207 136.809 20.0603V17.2736H136.785Z" fill="white"/>
<path d="M155.766 24.024H151.455V21.2372H151.408C151.244 21.5976 151.056 21.982 150.822 22.3423C150.588 22.7267 150.33 23.063 149.979 23.3513C149.651 23.6636 149.252 23.9039 148.831 24.0961C148.385 24.2882 147.87 24.3843 147.284 24.3843C146.558 24.3843 145.996 24.3123 145.527 24.1441C145.082 23.9759 144.73 23.8078 144.473 23.6156C144.356 23.5195 144.215 23.3994 144.051 23.2792C143.887 23.1351 143.77 22.9429 143.629 22.7027C143.512 22.4624 143.395 22.1501 143.301 21.7898C143.208 21.4054 143.161 20.9489 143.161 20.3964V12.5646H141.099V12.1802H145.48V20.6606C145.48 21.1411 145.504 21.5735 145.574 21.982C145.644 22.3904 145.761 22.7507 145.925 23.039C146.113 23.3513 146.347 23.5916 146.628 23.7597C146.909 23.9279 147.284 24.024 147.753 24.024C148.151 24.024 148.55 23.9039 148.971 23.6636C149.393 23.4234 149.768 23.0871 150.119 22.6546C150.471 22.2222 150.752 21.6937 150.986 21.069C151.22 20.4444 151.338 19.7717 151.338 18.979V12.5886H149.346V12.2042H153.704V23.6396H155.766V24.024Z" fill="white"/>
<path d="M156.609 12.2044H158.67V8.64883C158.811 8.69688 158.952 8.74493 159.069 8.79298C159.186 8.84102 159.42 8.84102 159.725 8.84102C159.982 8.84102 160.217 8.817 160.428 8.74493C160.615 8.67285 160.802 8.57676 160.99 8.43262V12.2044H164.809V12.5888H160.99V21.5977C160.99 22.1023 161.037 22.5347 161.13 22.847C161.224 23.1593 161.365 23.4236 161.529 23.5917C161.693 23.7599 161.857 23.88 162.044 23.9281C162.232 23.9761 162.419 24.0001 162.607 24.0001C163.239 24.0001 163.731 23.7599 164.129 23.3035C164.504 22.847 164.762 22.2944 164.879 21.6938L165.254 21.838C165.207 22.0782 165.114 22.3425 165.02 22.6308C164.903 22.9191 164.739 23.2074 164.528 23.4716C164.293 23.7359 164.012 23.9521 163.661 24.1443C163.309 24.3125 162.864 24.4086 162.325 24.4086C160.99 24.4086 160.053 24.1443 159.514 23.6158C158.975 23.0872 158.717 22.3185 158.717 21.3575V12.5888H156.609V12.2044Z" fill="white"/>
<path d="M164.692 12.2041H171.276V12.5885H169.026L172.494 21.2371L176.126 12.5885H173.9V12.2041H178V12.5885H176.547L172.119 23.2311C171.768 24.0239 171.463 24.8167 171.159 25.6095C170.854 26.4023 170.549 27.2191 170.245 28.0119C169.987 28.6845 169.753 29.2611 169.495 29.7416C169.237 30.2461 168.98 30.6305 168.698 30.9428C168.417 31.2551 168.113 31.4954 167.808 31.6395C167.504 31.7836 167.105 31.8797 166.683 31.8797C166.168 31.8797 165.746 31.8077 165.442 31.6395C165.137 31.4713 164.879 31.2791 164.692 31.0629C164.505 30.8467 164.387 30.6065 164.341 30.3662C164.294 30.126 164.27 29.9338 164.27 29.7656C164.27 29.3092 164.387 28.9728 164.645 28.7326C164.903 28.4924 165.207 28.3963 165.559 28.3963C165.676 28.3963 165.817 28.4203 165.957 28.4443C166.098 28.4683 166.238 28.5164 166.355 28.5885C166.473 28.6605 166.59 28.7566 166.683 28.9008C166.777 29.0209 166.824 29.1891 166.824 29.3572C166.824 29.6215 166.754 29.8617 166.59 30.0779C166.426 30.3182 166.355 30.5584 166.355 30.8467C166.355 31.0869 166.426 31.2311 166.543 31.3032C166.66 31.3752 166.847 31.4233 167.058 31.4233C167.34 31.4233 167.621 31.3512 167.855 31.2071C168.089 31.0629 168.324 30.8467 168.558 30.5344C168.792 30.2221 169.026 29.8137 169.261 29.3092C169.495 28.8047 169.753 28.18 170.034 27.4593L171.205 24.3843L166.566 12.5885H164.715V12.2041H164.692Z" fill="white"/>
<path d="M32.8718 14.1982C32.4267 13.1171 31.8409 12.1801 31.0912 11.3633C30.3414 10.5705 29.4745 9.9219 28.5139 9.4174C27.5299 8.93692 26.499 8.69668 25.3744 8.69668C24.2263 8.69668 23.2657 8.93692 22.4925 9.39337C21.9302 8.79277 21.321 8.24022 20.665 7.75974V1.63363C19.6341 0.888888 18.6266 0.360359 17.8066 0V6.15014V6.72671V6.94292C22.0005 8.64863 24.9526 12.8288 24.9526 17.7057C24.9526 24.096 19.8918 29.3092 13.6595 29.3092C7.42726 29.3092 2.34303 24.1921 2.34303 17.7777C2.34303 11.3633 7.40383 6.17416 13.6361 6.17416C13.9641 6.17416 14.2687 6.19818 14.5967 6.22221V5.35735C14.0813 5.28527 13.5658 5.26125 13.0269 5.26125C5.83405 5.26125 -0.0233596 11.2672 7.00448e-05 18.6426C7.00448e-05 26.018 5.85748 32.0239 13.0504 31.9999C17.3614 31.9999 21.1805 29.8618 23.5469 26.5465C24.0154 26.6906 24.5309 26.7627 25.1166 26.7387C26.2413 26.7387 27.319 26.4744 28.3499 25.9939C29.3574 25.4894 30.2712 24.8168 31.0209 23.9759C31.7941 23.1351 32.4033 22.1501 32.8484 21.069C33.2936 19.9639 33.5279 18.8108 33.5279 17.6096C33.5279 16.4324 33.317 15.3033 32.8718 14.1982ZM29.5448 20.8768C29.4745 22.006 29.2871 22.9669 28.9591 23.7597C28.6545 24.5525 28.1859 25.1531 27.5767 25.5855C26.9676 26.018 26.1241 26.2101 25.0698 26.2101C24.6246 26.2101 24.2263 26.1621 23.8514 26.09C25.2572 23.9519 26.0772 21.3813 26.0772 18.6186C26.0772 15.2312 24.8355 12.1321 22.8205 9.77776C23.4297 9.46545 24.32 9.27325 25.2338 9.27325C26.1241 9.27325 26.8739 9.46544 27.4596 9.8258C28.0453 10.1862 28.4905 10.7147 28.8185 11.4114C29.1465 12.1081 29.3574 12.9249 29.498 13.8858C29.6386 14.8468 29.6854 15.9279 29.6854 17.1531C29.662 18.5225 29.6386 19.7717 29.5448 20.8768Z" fill="white"/>
<path d="M14.4315 9.27299C11.9948 9.03275 9.15983 9.20091 8.9724 13.9336C12.8851 14.0778 14.2206 11.315 14.4315 9.27299Z" fill="#A4CA61"/>
<path d="M21.3663 25.6816C21.132 25.4173 21.0149 24.9128 21.0149 24.1441V14.2943C21.0149 13.5735 20.9212 12.9009 20.7103 12.2522C20.4994 11.6036 20.148 11.027 19.656 10.5225C19.1874 10.018 18.5548 9.6336 17.805 9.32129V13.1891C17.805 13.2852 17.805 13.3573 17.805 13.4534C17.805 14.2462 17.7582 14.8708 17.641 15.3273C17.5239 15.7837 17.313 16.1681 17.0084 16.4804C16.7038 16.7927 16.2587 17.033 15.7198 17.2492C15.1575 17.4654 14.4546 17.7057 13.6111 17.9939C12.8848 18.2342 12.1819 18.4504 11.479 18.6666C10.7761 18.8828 10.1201 19.1471 9.55779 19.4834C8.97205 19.8198 8.50346 20.2522 8.15201 20.8047C7.80057 21.3573 7.61313 22.102 7.61313 23.0149C7.61313 23.3993 7.68342 23.8318 7.77714 24.3122C7.89429 24.7687 8.12858 25.2011 8.50346 25.5615C8.8549 25.9219 9.37035 26.2342 10.003 26.4984C10.6356 26.7387 11.5024 26.8828 12.5802 26.8828C13.5408 26.8828 14.314 26.7627 14.9466 26.5465C15.5558 26.3303 16.0478 26.042 16.4227 25.7056C16.7975 25.3693 17.0787 25.033 17.2427 24.6726C17.4301 24.3122 17.5707 24.024 17.6644 23.7837H17.7347C17.9456 24.7687 18.3205 25.5134 18.8828 26.066C19.3045 26.4744 19.9137 26.7146 20.7103 26.8348C21.0617 26.5465 21.3663 26.2582 21.6709 25.9459C21.5538 25.8738 21.46 25.8017 21.3663 25.6816ZM17.6879 20.5885C17.6879 21.1171 17.641 21.6936 17.5473 22.3423C17.4536 22.9909 17.2896 23.5915 17.0084 24.1441C16.7273 24.6966 16.329 25.1531 15.8135 25.5375C15.2746 25.8978 14.5952 26.09 13.7517 26.09C13.166 26.09 12.6739 25.9939 12.2991 25.7777C11.9242 25.5615 11.643 25.2972 11.4322 24.9609C11.2213 24.6246 11.0807 24.2642 11.0104 23.8318C10.9401 23.3993 10.8933 22.9909 10.8933 22.6065C10.8933 21.6936 11.1041 20.9008 11.5493 20.3002C11.9945 19.6756 12.6271 19.1951 13.4471 18.8588L16.3524 17.6576C17.149 17.3213 17.5707 16.9609 17.6176 16.6246H17.6879V20.5885Z" fill="#A4CA61"/>
</svg>
